<svg width="151" height="32" viewBox="0 0 151 32" fill="none" xmlns="http://www.w3.org/2000/svg">
<path d="M24.008 32H7.99201C3.61239 32 0 28.4196 0 24.008V7.99201C0 3.61239 3.58042 0 7.99201 0H24.008C28.4196 0 32 3.58042 32 7.99201V24.008C32 28.4196 28.4196 32 24.008 32ZM7.99201 2.36563C4.89111 2.36563 2.36563 4.89111 2.36563 7.99201V24.008C2.36563 27.1089 4.89111 29.6344 7.99201 29.6344H24.008C27.1089 29.6344 29.6344 27.1089 29.6344 24.008V7.99201C29.6344 4.89111 27.1089 2.36563 24.008 2.36563H7.99201Z" fill="white"/>
<path d="M22.2495 19.34C21.6421 20.4589 20.779 21.322 19.724 22.0253C18.6691 22.6966 17.3904 23.0483 15.8559 23.0483C14.8329 23.0483 13.8739 22.8565 12.9788 22.5048C12.1156 22.1532 11.3484 21.6417 10.709 21.0023C10.0697 20.363 9.55819 19.5957 9.20654 18.7326C8.85489 17.8694 8.66309 16.9104 8.66309 15.8555C8.66309 14.8645 8.85489 13.9374 9.17457 13.0742C9.52622 12.2111 10.0057 11.4119 10.6451 10.7725C11.2525 10.1332 12.0197 9.6217 12.8509 9.23808C13.714 8.85447 14.6731 8.66266 15.6961 8.66266C16.783 8.66266 17.774 8.85447 18.5732 9.20612C19.4363 9.55776 20.1076 10.0693 20.6831 10.7086C21.2585 11.348 21.6741 12.1152 21.9618 12.9464C22.2495 13.8095 22.4093 14.7686 22.4093 15.7596V16.0792C22.3774 16.1751 22.3774 16.271 22.3774 16.3989C22.4093 16.4629 22.4093 16.5588 22.4093 16.6547H12.2115C12.2755 17.1981 12.4353 17.6776 12.6911 18.0613C12.9468 18.4449 13.2025 18.7965 13.5542 19.0523C13.8739 19.308 14.2895 19.5318 14.6731 19.6277C15.0887 19.7556 15.5042 19.8195 15.9198 19.8195C16.751 19.8195 17.4543 19.6277 17.9978 19.2441C18.3174 19.0523 18.5732 18.7646 18.797 18.5088C19.1166 18.1252 19.6601 18.0293 20.1076 18.2211L22.2495 19.34ZM18.9568 14.0972C18.9248 13.8734 18.8609 13.5857 18.733 13.298C18.6051 13.0103 18.4133 12.7226 18.1256 12.4669C17.8699 12.2111 17.5182 11.9873 17.1346 11.8275C16.751 11.6677 16.2715 11.5717 15.728 11.5717C14.9608 11.5717 14.2895 11.7955 13.6821 12.2431C13.0747 12.6906 12.6911 13.298 12.4353 14.0972H18.9568Z" fill="url(#paint0_linear_2113_3164)"/>
<path d="M126.606 27.635L127.31 25.9407H128.013L126.926 28.4339V29.3294H126.223V28.4339L125.167 25.9407H125.902L126.606 27.635ZM134.087 27.9866C134.087 28.466 133.959 28.786 133.735 28.9778C133.512 29.2016 133.159 29.2971 132.712 29.2971C132.488 29.2971 132.233 29.2656 132.041 29.2337C131.849 29.1697 131.657 29.0737 131.497 28.9778L131.785 28.4661C131.881 28.53 132.009 28.6256 132.169 28.6575C132.329 28.6894 132.489 28.722 132.648 28.722C132.904 28.7219 133.096 28.6574 133.191 28.5296C133.319 28.4337 133.384 28.2424 133.384 28.0188V27.9866C133.192 28.1784 132.936 28.3059 132.616 28.3059C132.393 28.3059 132.169 28.2426 132.009 28.1468C131.817 28.0509 131.689 27.9225 131.562 27.7307C131.466 27.5389 131.401 27.3471 131.401 27.1233C131.401 26.8996 131.466 26.6757 131.562 26.5159C131.657 26.3243 131.817 26.1967 132.009 26.1009C132.201 26.005 132.392 25.9407 132.616 25.9407C132.968 25.9407 133.255 26.0685 133.447 26.2923V25.9729L134.087 25.9407V27.9866ZM108.417 27.8284H109.823V25.1751H110.559V27.8284H111.038V29.1067H110.335V28.4036H107.649V25.1751H108.417V27.8284ZM97.6426 8.70828C98.6016 8.70828 99.4012 8.90034 100.104 9.22C100.776 9.57158 101.351 10.019 101.767 10.6263H101.99L102.022 10.2425C102.023 9.63536 102.502 9.15566 103.109 9.15555H105.476V21.6233C105.476 22.7422 105.316 23.7976 104.964 24.6927C104.612 25.6196 104.1 26.3864 103.493 27.0257C102.886 27.6649 102.119 28.1767 101.256 28.4964C100.393 28.816 99.4015 29.008 98.3467 29.0081C97.3877 29.0081 96.5243 28.9122 95.7891 28.6565C95.0219 28.4328 94.3823 28.0811 93.8389 27.6975C93.2636 27.314 92.7842 26.8664 92.4326 26.387C92.081 25.9075 91.7927 25.428 91.6328 24.9485L94.1582 23.9573C94.6375 23.7656 95.181 23.9252 95.4688 24.3723C95.6924 24.6919 95.9805 25.0119 96.332 25.2356C96.9074 25.6512 97.547 25.843 98.2822 25.843C99.433 25.843 100.329 25.4601 101 24.7249C101.671 23.9896 101.99 22.9342 101.99 21.6555V20.7288H101.767C101.351 21.336 100.808 21.8154 100.104 22.135C99.4012 22.4547 98.5696 22.6468 97.6426 22.6468C96.8116 22.6467 96.0444 22.4869 95.2773 22.1673C94.5101 21.8476 93.8388 21.3674 93.2314 20.76C92.6562 20.1528 92.1446 19.4179 91.793 18.555C91.4413 17.6918 91.249 16.732 91.249 15.677C91.2491 14.6223 91.4414 13.6631 91.793 12.8001C92.1765 11.9372 92.6242 11.2023 93.2314 10.595C93.8388 9.98761 94.5101 9.50745 95.2773 9.18777C96.0444 8.86816 96.8435 8.70835 97.6426 8.70828ZM135.558 26.0061C135.877 25.8785 136.101 25.9747 136.324 26.0706C136.516 26.1665 136.708 26.3263 136.804 26.5501C136.932 26.7418 136.996 26.9653 136.996 27.221C136.996 27.4767 136.932 27.701 136.804 27.8929C136.676 28.0845 136.516 28.2446 136.324 28.3723C136.132 28.5 135.876 28.5315 135.589 28.5315C135.365 28.5315 135.11 28.4675 134.95 28.4036C134.758 28.3397 134.599 28.2121 134.471 28.0843L134.886 27.7005C135.078 27.8923 135.302 27.9886 135.558 27.9886C135.749 27.9885 135.877 27.9245 136.037 27.8606C136.197 27.7967 136.229 27.6688 136.293 27.5091H135.237V27.0296H136.261C136.197 26.8698 136.133 26.7739 136.005 26.678C135.877 26.6141 135.717 26.5501 135.525 26.5501C135.27 26.5501 135.045 26.6454 134.854 26.8372L134.438 26.4544C134.566 26.2945 134.726 26.198 134.918 26.1341C135.11 26.0701 135.334 26.0061 135.558 26.0061ZM145.851 26.0061C146.106 25.8783 146.362 25.9747 146.586 26.0706C146.778 26.1665 146.97 26.3263 147.065 26.5501C147.193 26.7418 147.258 26.9654 147.258 27.221C147.258 27.4767 147.193 27.701 147.065 27.8929C146.938 28.0845 146.778 28.2445 146.586 28.3723C146.394 28.4682 146.138 28.5315 145.851 28.5315C145.627 28.5315 145.371 28.4675 145.211 28.4036C145.019 28.3396 144.859 28.212 144.731 28.0843L145.147 27.7005C145.339 27.8922 145.563 27.9885 145.818 27.9886C146.01 27.9886 146.138 27.9245 146.298 27.8606C146.426 27.7967 146.49 27.6688 146.554 27.5091H145.531V27.0296H146.554C146.49 26.8697 146.426 26.7739 146.298 26.678C146.17 26.6141 146.01 26.5501 145.818 26.5501C145.563 26.5502 145.339 26.6456 145.147 26.8372L144.731 26.4544C144.859 26.2946 145.019 26.198 145.211 26.1341C145.403 26.0701 145.627 26.0062 145.851 26.0061ZM112.477 25.9065C112.796 25.9066 113.052 26.0032 113.212 26.2268V25.971L113.946 25.9388V28.4319H113.243V28.1448C113.051 28.3364 112.796 28.464 112.477 28.4641C112.253 28.4641 112.029 28.3999 111.837 28.304C111.645 28.2081 111.517 28.0485 111.39 27.8567C111.294 27.665 111.23 27.4415 111.229 27.1858C111.229 26.9301 111.294 26.7058 111.39 26.5139C111.486 26.3224 111.645 26.1945 111.837 26.0667C112.029 25.9708 112.253 25.9065 112.477 25.9065ZM138.657 25.8138C138.913 25.8138 139.137 25.8781 139.36 25.9739C139.552 26.0698 139.681 26.2296 139.809 26.4534L139.233 26.7727C139.106 26.549 138.913 26.4534 138.657 26.4534C138.466 26.4535 138.337 26.517 138.178 26.6448C138.05 26.7726 137.986 26.9326 137.986 27.1243C137.986 27.316 138.05 27.5078 138.178 27.6038C138.306 27.7316 138.466 27.7951 138.657 27.7952C138.913 27.7952 139.106 27.6996 139.233 27.4759L139.809 27.7952C139.745 27.987 139.584 28.1478 139.36 28.2757C139.169 28.3714 138.945 28.4348 138.657 28.4348C138.37 28.4667 138.146 28.4035 137.922 28.2757C137.73 28.1798 137.538 28.0189 137.442 27.7952C137.315 27.6035 137.251 27.3798 137.251 27.1243C137.251 26.8688 137.315 26.6451 137.442 26.4534C137.57 26.2617 137.73 26.1336 137.922 25.9739C138.114 25.878 138.37 25.8138 138.657 25.8138ZM119.765 25.9417V28.4348H119.062V28.1468C118.998 28.2427 118.869 28.3384 118.741 28.3704C118.613 28.4342 118.454 28.4348 118.294 28.4348C117.974 28.4348 117.687 28.3385 117.527 28.1468C117.336 27.955 117.239 27.6674 117.239 27.3157V25.9095H117.975V27.1878C117.975 27.5714 118.134 27.7952 118.454 27.7952C118.646 27.7952 118.773 27.7314 118.869 27.6038C118.965 27.5079 119.029 27.316 119.029 27.1243V25.8772L119.765 25.9417ZM115.673 26.6438L116.185 25.9407H116.983L116.057 27.1555L117.016 28.4026H116.185L115.641 27.6673L115.098 28.4026H114.298L115.257 27.1555L114.33 25.9407H115.13L115.673 26.6438ZM121.971 27.3792L122.834 25.9407H123.506V28.4026H122.866V26.9319L122.099 28.178H121.843L121.107 26.9319V28.4026H120.437V25.9407H121.204L121.971 27.3792ZM129.067 26.8997H130.154V25.9407H130.857V28.4026H130.154V27.4749H129.067V28.4026H128.364V25.9407H129.067V26.8997ZM148.439 26.8997H149.526V25.9407H150.262V28.4026H149.526V27.4749H148.439V28.4026H147.736V25.9407H148.439V26.8997ZM140.832 26.1311C140.928 26.0353 141.024 25.9395 141.151 25.9075C141.279 25.8436 141.439 25.843 141.599 25.843C141.79 25.843 141.918 25.8749 142.078 25.9388C142.238 26.0027 142.335 26.1312 142.398 26.2591C142.494 26.1312 142.621 26.0346 142.781 25.9388C142.941 25.8748 143.101 25.8431 143.293 25.843C143.709 25.907 143.933 25.9716 144.093 26.1634C144.284 26.3552 144.38 26.643 144.38 26.9944V28.4007H143.645V27.0901C143.645 26.8984 143.581 26.7707 143.517 26.6429C143.453 26.5469 143.325 26.4827 143.197 26.4827C143.005 26.4827 142.877 26.547 142.781 26.6429C142.686 26.7389 142.622 26.9308 142.622 27.1223V28.3684H141.887V27.0579C141.887 26.6744 141.727 26.4505 141.407 26.4505C141.247 26.4505 141.087 26.5147 141.023 26.6106C140.928 26.7066 140.863 26.8984 140.863 27.0901V28.3372H140.128V25.843H140.832V26.1311ZM112.604 26.5462C112.413 26.5462 112.285 26.61 112.125 26.7376C111.997 26.8654 111.933 27.0255 111.933 27.2171C111.933 27.4089 111.997 27.6007 112.125 27.6966C112.253 27.8244 112.413 27.8889 112.604 27.8889C112.796 27.857 112.956 27.7924 113.052 27.6966C113.179 27.5687 113.243 27.4087 113.243 27.2171C113.243 27.0254 113.18 26.8334 113.052 26.7376C112.924 26.6099 112.764 26.5463 112.604 26.5462ZM132.712 26.4524C132.52 26.4524 132.392 26.516 132.232 26.6438C132.105 26.7397 132.041 26.8994 132.041 27.0911C132.041 27.2829 132.105 27.4115 132.232 27.5393C132.36 27.6352 132.52 27.7307 132.712 27.7307C132.904 27.6988 133.064 27.667 133.191 27.5393C133.319 27.4434 133.384 27.2829 133.384 27.0911C133.384 26.8995 133.319 26.7716 133.191 26.6438C133.064 26.548 132.904 26.4524 132.712 26.4524ZM143.389 8.70828C145.466 8.70828 147.065 9.18809 148.184 10.179C149.302 11.17 149.847 12.6408 149.847 14.5589V22.678H147.353C146.745 22.6779 146.266 22.1984 146.266 21.5911V21.2718H146.042C145.626 21.7832 145.115 22.2307 144.508 22.5823C143.9 22.9339 143.133 23.1262 142.206 23.1263C141.503 23.1263 140.831 23.0297 140.224 22.8059C139.584 22.5822 139.073 22.2625 138.594 21.847C138.114 21.4315 137.763 20.9524 137.507 20.3772C137.251 19.8018 137.123 19.1618 137.123 18.4905C137.123 17.7874 137.251 17.18 137.538 16.6048C137.826 16.0294 138.21 15.5818 138.689 15.1663C139.169 14.7508 139.776 14.4304 140.447 14.2386C141.119 14.0148 141.854 13.9192 142.653 13.9192C143.58 13.9192 144.284 13.9828 144.859 14.1106C145.403 14.2705 145.914 14.399 146.266 14.5589V14.1751C146.266 13.4398 145.978 12.8646 145.402 12.385C144.827 11.9056 144.156 11.6819 143.293 11.6819C142.046 11.6819 140.991 12.1934 140.128 13.2483L137.507 11.4261C138.945 9.60389 140.895 8.70829 143.389 8.70828ZM67.1133 8.67899C68.1682 8.67899 69.1281 8.87031 69.9912 9.22195C70.8542 9.5736 71.6214 10.0856 72.2607 10.7249C72.9 11.3642 73.3791 12.1314 73.7627 12.9944C74.1143 13.8575 74.3066 14.8165 74.3066 15.8714C74.3066 16.8943 74.1143 17.8862 73.7627 18.7493C73.4111 19.6122 72.9 20.3796 72.2607 21.0188C71.6215 21.6581 70.8541 22.1691 69.9912 22.5208C69.1281 22.8724 68.1682 23.0647 67.1133 23.0647C66.0585 23.0647 65.0994 22.8724 64.2363 22.5208C63.3734 22.1692 62.6061 21.6581 61.9668 21.0188C61.3275 20.4115 60.8155 19.6123 60.4639 18.7493C60.1122 17.8862 59.9209 16.9263 59.9209 15.8714C59.9209 14.8485 60.1123 13.8575 60.4639 12.9944C60.8155 12.1313 61.3274 11.3642 61.9668 10.7249C62.6062 10.0855 63.3732 9.5736 64.2363 9.22195C65.0994 8.87035 66.0585 8.67903 67.1133 8.67899ZM114.842 8.67899C115.897 8.67899 116.857 8.87031 117.72 9.22195C118.583 9.5736 119.35 10.0856 119.989 10.7249C120.628 11.3642 121.14 12.1314 121.491 12.9944C121.843 13.8575 122.035 14.8165 122.035 15.8714C122.035 16.8943 121.843 17.8862 121.491 18.7493C121.14 19.6122 120.628 20.3796 119.989 21.0188C119.35 21.6581 118.583 22.1691 117.72 22.5208C116.857 22.8724 115.897 23.0647 114.842 23.0647C113.787 23.0647 112.828 22.8724 111.965 22.5208C111.102 22.1692 110.335 21.6581 109.695 21.0188C109.056 20.4115 108.544 19.6123 108.192 18.7493C107.841 17.8862 107.649 16.9263 107.649 15.8714C107.649 14.8485 107.841 13.8575 108.192 12.9944C108.544 12.1313 109.056 11.3642 109.695 10.7249C110.335 10.0855 111.102 9.5736 111.965 9.22195C112.828 8.87035 113.787 8.67903 114.842 8.67899ZM84.1523 8.70828C84.9835 8.70828 85.7513 8.83659 86.3906 9.1243C86.9979 9.38003 87.5415 9.76329 87.957 10.2747C88.3726 10.7862 88.692 11.4259 88.8838 12.1292C89.1075 12.8324 89.2041 13.6314 89.2041 14.4944V22.678H85.5596V14.9104C85.5596 13.9195 85.3674 13.2161 84.9199 12.7366C84.5044 12.2572 83.8652 12.0335 83.0342 12.0335C82.5547 12.0335 82.1063 12.161 81.7227 12.3528C81.3711 12.5766 81.0193 12.8646 80.7637 13.2161C80.4761 13.5996 80.2841 14.0151 80.1562 14.4944C80.0284 14.942 79.9648 15.4861 79.9648 16.0296V22.7102H76.3525V9.18777H78.6865C79.2937 9.18798 79.7733 9.66752 79.7734 10.2747V10.9466H79.9971C80.4127 10.2433 80.9561 9.69932 81.6914 9.3157C82.4265 8.90027 83.2255 8.70833 84.1523 8.70828ZM44.0967 8.67899C45.1514 8.67905 46.0146 8.93488 46.7178 9.41434C47.4209 9.92576 47.932 10.5012 48.2197 11.2044C48.6672 10.5332 49.275 9.92604 50.042 9.44656C50.8092 8.93508 51.7366 8.71122 52.8555 8.71121C53.6865 8.71121 54.3898 8.87059 54.9971 9.12625C55.6045 9.382 56.1164 9.76587 56.5 10.2454C56.8836 10.6929 57.2032 11.3004 57.3311 11.9397C57.5548 12.611 57.6504 13.3466 57.6504 14.1458V22.6809H54.0381V14.8167C54.0381 12.9945 53.271 12.0677 51.7686 12.0677C51.2892 12.0677 50.8418 12.1953 50.4902 12.387C50.1386 12.6108 49.8182 12.8986 49.5625 13.2503C49.3069 13.6018 49.1152 14.0493 48.9873 14.5286C48.8594 15.0081 48.7959 15.5519 48.7959 16.1272V22.6809H45.1836V14.8167C45.1836 12.9945 44.3838 12.0677 42.8174 12.0677C42.3379 12.0677 41.9222 12.1952 41.6025 12.387C41.2829 12.6108 40.963 12.8987 40.7393 13.2503C40.4836 13.6018 40.2919 14.0493 40.1641 14.5286C40.0362 15.0081 39.9727 15.5519 39.9727 16.1272V22.6487H36.3281V9.12625H38.6299C39.2372 9.12632 39.7167 9.6059 39.7168 10.2132V10.885H39.9404C40.388 10.2137 40.9317 9.70199 41.667 9.28641C42.4342 8.87088 43.2336 8.67899 44.0967 8.67899ZM127.821 22.6809H124.208V2.89188H127.821V22.6809ZM134.758 22.679H131.146V9.15652H134.758V22.679ZM143.549 16.5403C142.686 16.5403 142.014 16.7329 141.534 17.1165C141.055 17.532 140.831 17.9794 140.831 18.5227C140.831 19.0662 141.055 19.5136 141.503 19.8333C141.918 20.1529 142.43 20.3128 143.037 20.3128C143.485 20.3128 143.932 20.2487 144.348 20.0569C144.763 19.8651 145.083 19.6415 145.371 19.3538C145.659 19.0661 145.882 18.7461 146.042 18.3626C146.202 17.9791 146.266 17.5957 146.33 17.2122C145.883 17.0204 145.467 16.8605 145.02 16.7327C144.572 16.6048 144.092 16.5403 143.549 16.5403ZM67.082 12.0677C66.6025 12.0677 66.1548 12.1317 65.7393 12.3235C65.2917 12.4514 64.9076 12.7392 64.5879 13.0589C64.2683 13.4104 63.9808 13.7943 63.7891 14.2737C63.5973 14.7531 63.501 15.2964 63.501 15.9036C63.501 16.511 63.5973 17.0549 63.7891 17.5345C63.9809 18.0138 64.2683 18.4297 64.5879 18.7493C64.9395 19.037 65.3237 19.2919 65.7393 19.4837C66.1548 19.6755 66.6025 19.7395 67.082 19.7395C67.5614 19.7395 67.9774 19.6754 68.4248 19.4837C68.8401 19.3557 69.2557 19.0687 69.5752 18.7493C69.8948 18.3978 70.1822 18.0137 70.374 17.5345C70.5658 17.0869 70.6941 16.543 70.6621 15.9036C70.6621 15.2963 70.5658 14.7532 70.374 14.2737C70.1823 13.7943 69.8948 13.3785 69.5752 13.0589C69.2556 12.7713 68.8721 12.5153 68.4248 12.3235C67.9774 12.1318 67.5614 12.0677 67.082 12.0677ZM114.842 12.0677C114.362 12.0677 113.915 12.1318 113.499 12.3235C113.052 12.4515 112.668 12.7393 112.349 13.0589C112.029 13.4105 111.742 13.7943 111.55 14.2737C111.358 14.7532 111.262 15.2963 111.262 15.9036C111.262 16.511 111.358 17.0549 111.55 17.5345C111.742 18.0138 112.029 18.4297 112.349 18.7493C112.7 19.0368 113.084 19.2919 113.499 19.4837C113.915 19.6754 114.362 19.7395 114.842 19.7395C115.321 19.7395 115.737 19.6755 116.185 19.4837C116.6 19.3558 117.016 19.0689 117.336 18.7493C117.624 18.3978 117.911 18.0137 118.103 17.5345C118.326 17.0869 118.391 16.543 118.391 15.9036C118.391 15.2963 118.294 14.7532 118.103 14.2737C117.943 13.7944 117.655 13.3785 117.336 13.0589C117.016 12.7712 116.632 12.5153 116.185 12.3235C115.737 12.1317 115.321 12.0677 114.842 12.0677ZM98.4424 12.0013C98.0268 12.0013 97.5787 12.065 97.1631 12.2249C96.7157 12.3847 96.3323 12.6406 96.0127 12.9602C95.6931 13.2799 95.4057 13.6635 95.2139 14.1429C94.9901 14.5904 94.8936 15.1661 94.8936 15.7415C94.8936 16.3169 95.0221 16.8284 95.2139 17.3079C95.4056 17.7553 95.6931 18.1387 96.0127 18.4583C96.3642 18.7778 96.7477 19.0338 97.1631 19.1936C97.5787 19.3535 97.9948 19.4173 98.4424 19.4173C98.8899 19.4173 99.3054 19.3535 99.7529 19.1936C100.168 19.0018 100.584 18.7779 100.903 18.4583C101.223 18.1706 101.511 17.7874 101.703 17.3079C101.927 16.8284 101.99 16.2849 102.022 15.7415C102.022 15.1341 101.895 14.6224 101.703 14.1429C101.511 13.6634 101.223 13.2799 100.903 12.9602C100.584 12.6407 100.2 12.3847 99.7529 12.2249C99.3054 12.0651 98.8899 12.0013 98.4424 12.0013ZM132.936 2.66824C133.575 2.66828 134.15 2.89211 134.598 3.27567C135.077 3.75513 135.301 4.26656 135.301 4.93777C135.301 5.60902 135.077 6.15236 134.598 6.59988C134.118 7.0474 133.575 7.27173 132.936 7.27176C132.648 7.27176 132.328 7.20822 132.04 7.08035C131.784 6.98445 131.496 6.82364 131.305 6.59988C131.113 6.37632 130.953 6.15292 130.825 5.86551C130.697 5.60977 130.634 5.28967 130.634 4.97C130.634 4.65032 130.697 4.36221 130.825 4.07449C130.921 3.8188 131.113 3.53089 131.305 3.33914C131.496 3.14737 131.752 2.98751 132.04 2.85965C132.328 2.73178 132.616 2.66824 132.936 2.66824Z" fill="white"/>
<defs>
<linearGradient id="paint0_linear_2113_3164" x1="13.2451" y1="18.0624" x2="21.2971" y2="11.0787" gradientUnits="userSpaceOnUse">
<stop stop-color="#FD4755"/>
<stop offset="1" stop-color="#D2024E"/>
</linearGradient>
</defs>
</svg>
