<svg width="151" height="32" viewBox="0 0 151 32" fill="none" xmlns="http://www.w3.org/2000/svg">
<path d="M24.008 32H7.99201C3.61239 32 0 28.4196 0 24.008V7.99201C0 3.61239 3.58042 0 7.99201 0H24.008C28.4196 0 32 3.58042 32 7.99201V24.008C32 28.4196 28.4196 32 24.008 32ZM7.99201 2.36563C4.89111 2.36563 2.36563 4.89111 2.36563 7.99201V24.008C2.36563 27.1089 4.89111 29.6344 7.99201 29.6344H24.008C27.1089 29.6344 29.6344 27.1089 29.6344 24.008V7.99201C29.6344 4.89111 27.1089 2.36563 24.008 2.36563H7.99201Z" fill="#0066FF"/>
<path d="M22.249 19.3399C21.6416 20.4588 20.7785 21.3219 19.7235 22.0252C18.6686 22.6966 17.3899 23.0482 15.8554 23.0482C14.8324 23.0482 13.8734 22.8564 12.9783 22.5048C12.1151 22.1531 11.3479 21.6416 10.7086 21.0023C10.0692 20.3629 9.5577 19.5957 9.20605 18.7325C8.85441 17.8694 8.6626 16.9103 8.6626 15.8554C8.6626 14.8644 8.85441 13.9373 9.17409 13.0742C9.52573 12.211 10.0053 11.4118 10.6446 10.7725C11.252 10.1331 12.0192 9.62164 12.8504 9.23802C13.7135 8.85441 14.6726 8.6626 15.6956 8.6626C16.7825 8.6626 17.7735 8.85441 18.5727 9.20605C19.4358 9.5577 20.1072 10.0692 20.6826 10.7086C21.258 11.3479 21.6736 12.1151 21.9613 12.9463C22.249 13.8094 22.4089 14.7685 22.4089 15.7595V16.0792C22.3769 16.1751 22.3769 16.271 22.3769 16.3989C22.4089 16.4628 22.4089 16.5587 22.4089 16.6546H12.211C12.275 17.1981 12.4348 17.6776 12.6906 18.0612C12.9463 18.4448 13.2021 18.7965 13.5537 19.0522C13.8734 19.308 14.289 19.5317 14.6726 19.6276C15.0882 19.7555 15.5038 19.8194 15.9193 19.8194C16.7505 19.8194 17.4538 19.6276 17.9973 19.244C18.3169 19.0522 18.5727 18.7645 18.7965 18.5087C19.1161 18.1251 19.6596 18.0292 20.1072 18.221L22.249 19.3399ZM18.9563 14.0972C18.9243 13.8734 18.8604 13.5857 18.7325 13.298C18.6047 13.0102 18.4128 12.7225 18.1251 12.4668C17.8694 12.211 17.5177 11.9873 17.1341 11.8274C16.7505 11.6676 16.271 11.5717 15.7275 11.5717C14.9603 11.5717 14.289 11.7955 13.6816 12.243C13.0742 12.6906 12.6906 13.298 12.4348 14.0972H18.9563Z" fill="url(#paint0_linear_1556_66472)"/>
<path fill-rule="evenodd" clip-rule="evenodd" d="M132.936 2.66846C132.616 2.66846 132.329 2.73239 132.041 2.86027C131.753 2.98814 131.497 3.14798 131.306 3.33979C131.114 3.53159 130.922 3.81931 130.826 4.07505C130.698 4.36276 130.634 4.65047 130.634 4.97016C130.634 5.28984 130.698 5.60952 130.826 5.86526C130.954 6.15297 131.114 6.37675 131.306 6.60052C131.497 6.8243 131.785 6.98414 132.041 7.08005C132.329 7.20792 132.648 7.27185 132.936 7.27185C133.575 7.27185 134.119 7.04808 134.598 6.60052C135.078 6.15297 135.302 5.60952 135.302 4.93819C135.302 4.26686 135.078 3.75537 134.598 3.27585C134.151 2.89223 133.575 2.66846 132.936 2.66846ZM124.209 2.89251H127.821V22.6807H124.209V2.89251ZM54.9979 9.12661C55.6053 9.38236 56.1168 9.76597 56.5004 10.2455C56.8841 10.693 57.2037 11.3004 57.3316 11.9398C57.5554 12.6111 57.6513 13.3464 57.6513 14.1456V22.6811H54.0389V14.8169C54.0389 12.9947 53.2717 12.0677 51.7692 12.0677C51.2897 12.0677 50.8421 12.1955 50.4905 12.3874C50.1388 12.6111 49.8191 12.8988 49.5634 13.2505C49.3076 13.6021 49.1158 14.0497 48.988 14.5292C48.8601 15.0087 48.7962 15.5522 48.7962 16.1276V22.6811H45.1838V14.8169C45.1838 12.9947 44.3846 12.0677 42.8181 12.0677C42.3386 12.0677 41.923 12.1955 41.6033 12.3874C41.2837 12.6111 40.964 12.8988 40.7402 13.2505C40.4845 13.6021 40.2927 14.0497 40.1648 14.5292C40.0369 15.0087 39.973 15.5522 39.973 16.1276V22.6491H36.3286V9.12661H38.6303C39.2377 9.12661 39.7172 9.60613 39.7172 10.2135V10.8849H39.941C40.3886 10.2135 40.932 9.70204 41.6673 9.28645C42.4345 8.87087 43.2337 8.67906 44.0968 8.67906C45.1518 8.67906 46.0149 8.9348 46.7182 9.41433C47.4215 9.92581 47.933 10.5012 48.2207 11.2045C48.6683 10.5332 49.2757 9.92581 50.0429 9.44629C50.8101 8.9348 51.7372 8.71103 52.8561 8.71103C53.6873 8.71103 54.3906 8.87087 54.9979 9.12661ZM69.9913 9.22252C70.8545 9.57416 71.6217 10.0857 72.2611 10.725C72.9004 11.3644 73.3799 12.1316 73.7635 12.9947C74.1152 13.8579 74.307 14.8169 74.307 15.8719C74.307 16.8948 74.1152 17.8859 73.7635 18.749C73.4119 19.6121 72.9004 20.3794 72.2611 21.0187C71.6217 21.6581 70.8545 22.1696 69.9913 22.5212C69.1282 22.8729 68.1691 23.0647 67.1142 23.0647C66.0592 23.0647 65.1002 22.8729 64.2371 22.5212C63.3739 22.1696 62.6067 21.6581 61.9673 21.0187C61.328 20.4113 60.8165 19.6121 60.4648 18.749C60.1132 17.8859 59.9214 16.9268 59.9214 15.8719C59.9214 14.8489 60.1132 13.8579 60.4648 12.9947C60.8165 12.1316 61.328 11.3644 61.9673 10.725C62.6067 10.0857 63.3739 9.57416 64.2371 9.22252C65.1002 8.87087 66.0592 8.67906 67.1142 8.67906C68.1691 8.67906 69.1282 8.87087 69.9913 9.22252ZM69.5757 18.749C69.8954 18.3973 70.1831 18.0137 70.3749 17.5342C70.5667 17.0867 70.6946 16.5432 70.6626 15.9038C70.6626 15.2964 70.5667 14.753 70.3749 14.2735C70.1831 13.7939 69.8954 13.3784 69.5757 13.0587C69.2561 12.771 68.8724 12.5152 68.4249 12.3234C67.9773 12.1316 67.5618 12.0677 67.0822 12.0677C66.6027 12.0677 66.1552 12.1316 65.7396 12.3234C65.292 12.4513 64.9084 12.739 64.5887 13.0587C64.269 13.4103 63.9813 13.7939 63.7895 14.2735C63.5977 14.753 63.5018 15.2964 63.5018 15.9038C63.5018 16.5112 63.5977 17.0547 63.7895 17.5342C63.9813 18.0137 64.269 18.4293 64.5887 18.749C64.9404 19.0367 65.324 19.2924 65.7396 19.4843C66.1552 19.6761 66.6027 19.74 67.0822 19.74C67.5618 19.74 67.9773 19.6761 68.4249 19.4843C68.8405 19.3564 69.2561 19.0687 69.5757 18.749ZM87.9574 10.2751C87.5418 9.76358 86.9984 9.37996 86.391 9.12422C85.7516 8.83651 84.9844 8.70864 84.1532 8.70864C83.2262 8.70864 82.427 8.90044 81.6917 9.31603C80.9564 9.69964 80.413 10.2431 79.9974 10.9464H79.7736V10.2751C79.7736 9.66768 79.2941 9.18816 78.6867 9.18816H76.353V22.7106H79.9654V16.0293C79.9654 15.4859 80.0294 14.9424 80.1572 14.4948C80.2851 14.0153 80.4769 13.5997 80.7646 13.2161C81.0204 12.8645 81.372 12.5768 81.7237 12.353C82.1073 12.1612 82.5548 12.0333 83.0344 12.0333C83.8655 12.0333 84.5049 12.2571 84.9205 12.7366C85.368 13.2161 85.5598 13.9194 85.5598 14.9104V22.6787H89.2042V14.4948C89.2042 13.6317 89.1083 12.8325 88.8845 12.1292C88.6927 11.4259 88.373 10.7866 87.9574 10.2751ZM101.767 10.6267H101.991L102.023 10.2431C102.023 9.63571 102.503 9.15619 103.11 9.15619H105.476V21.6237C105.476 22.7426 105.316 23.7975 104.964 24.6926C104.613 25.6197 104.101 26.387 103.494 27.0263C102.886 27.6657 102.119 28.1772 101.256 28.4968C100.393 28.8165 99.4019 29.0083 98.3469 29.0083C97.3879 29.0083 96.5247 28.9124 95.7895 28.6567C95.0222 28.4329 94.3829 28.0813 93.8394 27.6976C93.264 27.314 92.7845 26.8665 92.4328 26.387C92.0812 25.9074 91.7935 25.4279 91.6336 24.9484L94.1591 23.9574C94.6386 23.7656 95.1821 23.9254 95.4698 24.373C95.6936 24.6926 95.9813 25.0123 96.3329 25.2361C96.9083 25.6517 97.5477 25.8435 98.283 25.8435C99.4338 25.8435 100.329 25.4599 101 24.7246C101.672 23.9894 101.991 22.9344 101.991 21.6557V20.7286H101.767C101.352 21.336 100.808 21.8155 100.105 22.1352C99.4019 22.4549 98.5707 22.6467 97.6436 22.6467C96.8124 22.6467 96.0452 22.4869 95.278 22.1672C94.5107 21.8475 93.8394 21.368 93.232 20.7606C92.6566 20.1532 92.1451 19.4179 91.7935 18.5548C91.4418 17.6917 91.25 16.7326 91.25 15.6777C91.25 14.6227 91.4418 13.6637 91.7935 12.8005C92.1771 11.9374 92.6246 11.2021 93.232 10.5947C93.8394 9.98736 94.5107 9.50784 95.278 9.18816C96.0452 8.86848 96.8444 8.70864 97.6436 8.70864C98.6026 8.70864 99.4019 8.90044 100.105 9.22012C100.776 9.57177 101.352 10.0193 101.767 10.6267ZM100.904 18.4589C101.224 18.1712 101.512 17.7876 101.704 17.308C101.927 16.8285 101.991 16.2851 102.023 15.7416C102.023 15.1342 101.895 14.6227 101.704 14.1432C101.512 13.6637 101.224 13.2801 100.904 12.9604C100.585 12.6407 100.201 12.385 99.7535 12.2251C99.3059 12.0653 98.8904 12.0013 98.4428 12.0013C98.0272 12.0013 97.5797 12.0653 97.1641 12.2251C96.7165 12.385 96.3329 12.6407 96.0132 12.9604C95.6936 13.2801 95.4058 13.6637 95.214 14.1432C94.9903 14.5908 94.8944 15.1662 94.8944 15.7416C94.8944 16.317 95.0222 16.8285 95.214 17.308C95.4058 17.7556 95.6936 18.1392 96.0132 18.4589C96.3649 18.7786 96.7485 19.0343 97.1641 19.1941C97.5797 19.354 97.9953 19.4179 98.4428 19.4179C98.8904 19.4179 99.3059 19.354 99.7535 19.1941C100.169 19.0023 100.585 18.7786 100.904 18.4589ZM119.99 10.725C119.35 10.0857 118.583 9.57416 117.72 9.22252C116.857 8.87087 115.898 8.67906 114.843 8.67906C113.788 8.67906 112.829 8.87087 111.966 9.22252C111.102 9.57416 110.335 10.0857 109.696 10.725C109.056 11.3644 108.545 12.1316 108.193 12.9947C107.842 13.8579 107.65 14.8489 107.65 15.8719C107.65 16.9268 107.842 17.8859 108.193 18.749C108.545 19.6121 109.056 20.4113 109.696 21.0187C110.335 21.6581 111.102 22.1696 111.966 22.5212C112.829 22.8729 113.788 23.0647 114.843 23.0647C115.898 23.0647 116.857 22.8729 117.72 22.5212C118.583 22.1696 119.35 21.6581 119.99 21.0187C120.629 20.3794 121.14 19.6121 121.492 18.749C121.844 17.8859 122.036 16.8948 122.036 15.8719C122.036 14.8169 121.844 13.8579 121.492 12.9947C121.14 12.1316 120.629 11.3644 119.99 10.725ZM118.103 17.5342C117.912 18.0137 117.624 18.3973 117.336 18.749C117.017 19.0687 116.601 19.3564 116.185 19.4843C115.738 19.6761 115.322 19.74 114.843 19.74C114.363 19.74 113.916 19.6761 113.5 19.4843C113.084 19.2924 112.701 19.0367 112.349 18.749C112.03 18.4293 111.742 18.0137 111.55 17.5342C111.358 17.0547 111.262 16.5112 111.262 15.9038C111.262 15.2964 111.358 14.753 111.55 14.2735C111.742 13.7939 112.03 13.4103 112.349 13.0587C112.669 12.739 113.052 12.4513 113.5 12.3234C113.916 12.1316 114.363 12.0677 114.843 12.0677C115.322 12.0677 115.738 12.1316 116.185 12.3234C116.633 12.5152 117.017 12.771 117.336 13.0587C117.656 13.3784 117.944 13.7939 118.103 14.2735C118.295 14.753 118.391 15.2964 118.391 15.9038C118.391 16.5432 118.327 17.0867 118.103 17.5342ZM131.146 9.15702H134.758V22.6795H131.146V9.15702ZM148.184 10.1792C147.066 9.18816 145.467 8.70864 143.389 8.70864C140.896 8.70864 138.946 9.60374 137.507 11.4259L140.129 13.2481C140.992 12.1932 142.047 11.6817 143.293 11.6817C144.157 11.6817 144.828 11.9054 145.403 12.385C145.979 12.8645 146.266 13.4399 146.266 14.1752V14.5588C145.995 14.4354 145.628 14.331 145.225 14.2163L145.225 14.2162C145.106 14.1824 144.984 14.1476 144.86 14.1112C144.284 13.9834 143.581 13.9194 142.654 13.9194C141.855 13.9194 141.12 14.0153 140.448 14.2391C139.777 14.4309 139.169 14.7506 138.69 15.1662C138.21 15.5818 137.827 16.0293 137.539 16.6047C137.251 17.1802 137.124 17.7876 137.124 18.4909C137.124 19.1622 137.251 19.8015 137.507 20.377C137.763 20.9524 138.115 21.4319 138.594 21.8475C139.074 22.2631 139.585 22.5828 140.224 22.8065C140.832 23.0303 141.503 23.1262 142.206 23.1262C143.134 23.1262 143.901 22.9344 144.508 22.5828C145.116 22.2311 145.627 21.7836 146.043 21.2721H146.266V21.5918C146.266 22.1991 146.746 22.6787 147.353 22.6787H149.847V14.5588C149.847 12.6407 149.303 11.1702 148.184 10.1792ZM146.043 18.363C145.883 18.7466 145.659 19.0663 145.371 19.354C145.084 19.6417 144.764 19.8655 144.348 20.0573C143.933 20.2491 143.485 20.313 143.038 20.313C142.43 20.313 141.919 20.1532 141.503 19.8335C141.056 19.5138 140.832 19.0663 140.832 18.5228C140.832 17.9794 141.056 17.5318 141.535 17.1162C142.015 16.7326 142.686 16.5408 143.549 16.5408C144.093 16.5408 144.572 16.6047 145.02 16.7326C145.467 16.8605 145.883 17.0203 146.33 17.2121C146.266 17.5957 146.202 17.9794 146.043 18.363ZM111.039 29.1072V27.8285H110.559V25.1752H109.824V27.8285H108.417V25.1752H107.65V28.4039H110.335V29.1072H111.039ZM113.947 28.4325H113.244V28.1448C113.052 28.3366 112.796 28.4645 112.477 28.4645C112.253 28.4645 112.029 28.4005 111.837 28.3046C111.646 28.2087 111.518 28.0489 111.39 27.8571C111.294 27.6653 111.23 27.4415 111.23 27.1857C111.23 26.93 111.294 26.7062 111.39 26.5144C111.486 26.3226 111.646 26.1947 111.837 26.0669C112.029 25.971 112.253 25.907 112.477 25.907C112.796 25.907 113.052 26.0029 113.212 26.2267V25.971L113.947 25.939V28.4325ZM113.052 27.6972C113.18 27.5694 113.244 27.4095 113.244 27.2177C113.244 27.0259 113.18 26.8341 113.052 26.7382C112.924 26.6103 112.764 26.5464 112.605 26.5464C112.413 26.5464 112.285 26.6103 112.125 26.7382C111.997 26.8661 111.933 27.0259 111.933 27.2177C111.933 27.4095 111.997 27.6013 112.125 27.6972C112.253 27.8251 112.413 27.889 112.605 27.889C112.796 27.8571 112.956 27.7931 113.052 27.6972ZM115.641 27.6671L116.185 28.4023H117.016L116.057 27.1556L116.984 25.9408H116.185L115.673 26.6441L115.13 25.9408H114.331L115.258 27.1556L114.299 28.4023H115.098L115.641 27.6671ZM119.765 28.4349H119.062V28.1472C118.998 28.2431 118.87 28.339 118.742 28.3709C118.614 28.4349 118.455 28.4349 118.295 28.4349C117.975 28.4349 117.687 28.339 117.527 28.1472C117.336 27.9554 117.24 27.6677 117.24 27.316V25.9094H117.975V27.1881C117.975 27.5717 118.135 27.7955 118.455 27.7955C118.646 27.7955 118.774 27.7316 118.87 27.6037C118.966 27.5078 119.03 27.316 119.03 27.1242V25.8774L119.765 25.9414V28.4349ZM122.867 26.9318V28.4023H123.506V25.9408H122.835L121.971 27.3793L121.204 25.9408H120.437V28.4023H121.108V26.9318L121.844 28.1785H122.099L122.867 26.9318ZM126.926 28.4343V29.3294H126.223V28.4343L125.168 25.9408H125.903L126.607 27.6351L127.31 25.9408H128.013L126.926 28.4343ZM129.068 25.9408H128.365V28.4023H129.068V27.4752H130.155V28.4023H130.858V25.9408H130.155V26.8998H129.068V25.9408ZM134.087 25.9408V27.9867C134.087 28.4663 133.959 28.7859 133.736 28.9777C133.512 29.2015 133.16 29.2974 132.713 29.2974C132.489 29.2974 132.233 29.2655 132.041 29.2335C131.849 29.1695 131.658 29.0736 131.498 28.9777L131.785 28.4663L131.817 28.4878C131.909 28.55 132.026 28.6295 132.169 28.6581C132.329 28.69 132.489 28.722 132.649 28.722C132.904 28.722 133.096 28.6581 133.192 28.5302C133.32 28.4343 133.384 28.2425 133.384 28.0187V27.9867C133.192 28.1785 132.936 28.3064 132.617 28.3064C132.393 28.3064 132.169 28.2425 132.009 28.1466C131.817 28.0507 131.69 27.9228 131.562 27.731C131.466 27.5392 131.402 27.3474 131.402 27.1236C131.402 26.8998 131.466 26.676 131.562 26.5162C131.658 26.3244 131.817 26.1965 132.009 26.1006C132.201 26.0047 132.393 25.9408 132.617 25.9408C132.968 25.9408 133.256 26.0687 133.448 26.2924V25.9727L134.087 25.9408ZM133.192 27.5392C133.32 27.4433 133.384 27.2834 133.384 27.0916C133.384 26.8998 133.32 26.7719 133.192 26.6441C133.064 26.5482 132.904 26.4523 132.713 26.4523C132.521 26.4523 132.393 26.5162 132.233 26.6441C132.105 26.74 132.041 26.8998 132.041 27.0916C132.041 27.2834 132.105 27.4113 132.233 27.5392C132.361 27.6351 132.521 27.731 132.713 27.731C132.904 27.699 133.064 27.6671 133.192 27.5392ZM136.805 26.5501C136.709 26.3263 136.517 26.1664 136.325 26.0705C136.101 25.9746 135.878 25.8787 135.558 26.0066C135.334 26.0066 135.11 26.0705 134.918 26.1345C134.727 26.1984 134.567 26.2943 134.439 26.4541L134.855 26.8378C135.046 26.646 135.27 26.5501 135.526 26.5501C135.718 26.5501 135.878 26.614 136.005 26.6779C136.133 26.7738 136.197 26.8697 136.261 27.0296H135.238V27.5091H136.293C136.286 27.5273 136.279 27.5451 136.272 27.5625C136.22 27.6973 136.179 27.8041 136.037 27.8607L136.014 27.8703L135.978 27.885C135.844 27.9399 135.725 27.9886 135.558 27.9886C135.302 27.9886 135.078 27.8927 134.887 27.7009L134.471 28.0845C134.599 28.2124 134.759 28.3403 134.95 28.4042C135.11 28.4681 135.366 28.5321 135.59 28.5321C135.878 28.5321 136.133 28.5001 136.325 28.3722C136.517 28.2444 136.677 28.0845 136.805 27.8927C136.932 27.7009 136.996 27.4771 136.996 27.2214C136.996 26.9656 136.932 26.7419 136.805 26.5501ZM137.923 28.2754C137.731 28.1795 137.539 28.0196 137.443 27.7958C137.315 27.604 137.251 27.3803 137.251 27.1245C137.251 26.8688 137.315 26.645 137.443 26.4532C137.564 26.2721 137.713 26.1481 137.891 26.0003L137.923 25.9737C138.115 25.8778 138.37 25.8138 138.658 25.8138C138.914 25.8138 139.138 25.8778 139.361 25.9737C139.553 26.0696 139.681 26.2294 139.809 26.4532L139.233 26.7729C139.106 26.5491 138.914 26.4532 138.658 26.4532C138.466 26.4532 138.338 26.5171 138.179 26.645C138.051 26.7729 137.987 26.9327 137.987 27.1245C137.987 27.3163 138.051 27.5081 138.179 27.604C138.306 27.7319 138.466 27.7958 138.658 27.7958C138.914 27.7958 139.106 27.6999 139.233 27.4762L139.809 27.7958C139.745 27.9877 139.585 28.1475 139.361 28.2754C139.17 28.3713 138.946 28.4352 138.658 28.4352C138.37 28.4672 138.147 28.4032 137.923 28.2754ZM144.381 26.9942C144.381 26.6426 144.285 26.3549 144.093 26.1631C143.933 25.9713 143.709 25.9073 143.294 25.8434C143.102 25.8434 142.942 25.8754 142.782 25.9393C142.622 26.0352 142.495 26.1311 142.399 26.259C142.335 26.1311 142.239 26.0032 142.079 25.9393C141.919 25.8754 141.791 25.8434 141.599 25.8434C141.44 25.8434 141.28 25.8434 141.152 25.9073C141.024 25.9393 140.928 26.0352 140.832 26.1311V25.8434H140.129V28.3369H140.864V27.0902C140.864 26.8983 140.928 26.7065 141.024 26.6106C141.088 26.5147 141.248 26.4508 141.408 26.4508C141.727 26.4508 141.887 26.6746 141.887 27.0582V28.3689H142.622V27.1221C142.622 26.9303 142.686 26.7385 142.782 26.6426C142.878 26.5467 143.006 26.4828 143.198 26.4828C143.326 26.4828 143.454 26.5467 143.518 26.6426C143.581 26.7705 143.645 26.8983 143.645 27.0902V28.4008H144.381V26.9942ZM146.587 26.0705C146.778 26.1664 146.97 26.3263 147.066 26.5501C147.194 26.7419 147.258 26.9656 147.258 27.2214C147.258 27.4771 147.194 27.7009 147.066 27.8927C146.938 28.0845 146.778 28.2444 146.587 28.3722C146.395 28.4681 146.139 28.5321 145.851 28.5321C145.628 28.5321 145.372 28.4681 145.212 28.4042C145.02 28.3403 144.86 28.2124 144.732 28.0845L145.148 27.7009C145.34 27.8927 145.564 27.9886 145.819 27.9886C145.987 27.9886 146.105 27.9399 146.239 27.885C146.259 27.877 146.279 27.8689 146.299 27.8607C146.427 27.7968 146.491 27.6689 146.555 27.5091H145.532V27.0296H146.555C146.491 26.8697 146.427 26.7738 146.299 26.6779C146.171 26.614 146.011 26.5501 145.819 26.5501C145.564 26.5501 145.34 26.646 145.148 26.8378L144.732 26.4541C144.86 26.2943 145.02 26.1984 145.212 26.1345C145.404 26.0705 145.628 26.0066 145.851 26.0066C146.107 25.8787 146.363 25.9746 146.587 26.0705ZM148.44 25.9408H147.737V28.4023H148.44V27.4752H149.527V28.4023H150.262V25.9408H149.527V26.8998H148.44V25.9408Z" fill="#0066FF"/>
<defs>
<linearGradient id="paint0_linear_1556_66472" x1="13.2446" y1="18.0623" x2="21.2966" y2="11.0787" gradientUnits="userSpaceOnUse">
<stop stop-color="#FD4755"/>
<stop offset="1" stop-color="#D2024E"/>
</linearGradient>
</defs>
</svg>
